<mxfile host="app.diagrams.net" modified="2024-01-15T10:04:22.760Z" agent="Mozilla/5.0 (Macintosh; Intel Mac OS X 10_15_7) AppleWebKit/537.36 (KHTML, like Gecko) Chrome/120.0.0.0 Safari/537.36" version="22.1.18" etag="V7_F1Ae4MxZtynRL-Mto" type="github">
  <diagram name="第 1 页" id="HZp1Bf1Xdp-lHMSmT2AA">
    <mxGraphModel>
      <root>
        <mxCell id="0" />
        <mxCell id="1" parent="0" />
      </root>
    </mxGraphModel>
  </diagram>
</mxfile>
